<mxfile host="app.diagrams.net" modified="2023-09-11T06:27:05.061Z" agent="Mozilla/5.0 (Windows NT 10.0; Win64; x64) AppleWebKit/537.36 (KHTML, like Gecko) Chrome/116.0.0.0 Safari/537.36" etag="ZKFiWq8JI5T8YtivZ2Up" version="21.7.4" type="github">
  <diagram name="Halaman-1" id="IStNIyz0EBM63P4vnqrL">
    <mxGraphModel dx="1665" dy="455" grid="1" gridSize="10" guides="1" tooltips="1" connect="1" arrows="1" fold="1" page="1" pageScale="1" pageWidth="827" pageHeight="1169" math="0" shadow="0">
      <root>
        <mxCell id="0" />
        <mxCell id="1" parent="0" />
        <mxCell id="87Fe96Nr9X9--KU_0_-U-29" value="" style="rounded=0;whiteSpace=wrap;html=1;rotation=90;" vertex="1" parent="1">
          <mxGeometry x="-579.77" y="310" width="419.54" height="283.13" as="geometry" />
        </mxCell>
        <mxCell id="87Fe96Nr9X9--KU_0_-U-31" value="komputer" style="shape=umlActor;verticalLabelPosition=bottom;verticalAlign=top;html=1;outlineConnect=0;" vertex="1" parent="1">
          <mxGeometry x="-720" y="420" width="60" height="110" as="geometry" />
        </mxCell>
        <mxCell id="87Fe96Nr9X9--KU_0_-U-33" value="user" style="shape=umlActor;verticalLabelPosition=bottom;verticalAlign=top;html=1;outlineConnect=0;" vertex="1" parent="1">
          <mxGeometry x="-80" y="381.56" width="60" height="140" as="geometry" />
        </mxCell>
        <mxCell id="87Fe96Nr9X9--KU_0_-U-34" value="game tebak angka" style="text;html=1;strokeColor=none;fillColor=none;align=center;verticalAlign=top;whiteSpace=wrap;rounded=0;" vertex="1" parent="1">
          <mxGeometry x="-440" y="260" width="140" height="30" as="geometry" />
        </mxCell>
        <mxCell id="87Fe96Nr9X9--KU_0_-U-35" value="random angka" style="ellipse;whiteSpace=wrap;html=1;" vertex="1" parent="1">
          <mxGeometry x="-460" y="300" width="160" height="90" as="geometry" />
        </mxCell>
        <mxCell id="87Fe96Nr9X9--KU_0_-U-39" value="" style="endArrow=none;html=1;rounded=0;entryX=0;entryY=0.5;entryDx=0;entryDy=0;" edge="1" parent="1" target="87Fe96Nr9X9--KU_0_-U-35">
          <mxGeometry width="50" height="50" relative="1" as="geometry">
            <mxPoint x="-630" y="450" as="sourcePoint" />
            <mxPoint x="-460" y="350" as="targetPoint" />
          </mxGeometry>
        </mxCell>
        <mxCell id="87Fe96Nr9X9--KU_0_-U-40" value="tebak angka" style="ellipse;whiteSpace=wrap;html=1;" vertex="1" parent="1">
          <mxGeometry x="-450" y="494" width="180" height="90" as="geometry" />
        </mxCell>
        <mxCell id="87Fe96Nr9X9--KU_0_-U-41" value="" style="endArrow=none;html=1;rounded=0;" edge="1" parent="1" target="87Fe96Nr9X9--KU_0_-U-33">
          <mxGeometry width="50" height="50" relative="1" as="geometry">
            <mxPoint x="-270" y="539" as="sourcePoint" />
            <mxPoint x="-220" y="480" as="targetPoint" />
          </mxGeometry>
        </mxCell>
      </root>
    </mxGraphModel>
  </diagram>
</mxfile>
